<?xml version="1.0" encoding="UTF-8" standalone="no"?>
<svg
   version="1.1"
   id="Layer_1"
   x="0px"
   y="0px"
   width="380.40265"
   viewBox="0 0 380.40264 417.90268"
   enable-background="new 0 0 436 437"
   xml:space="preserve"
   sodipodi:docname="man_adobe_express.svg"
   inkscape:version="1.2.1 (9c6d41e410, 2022-07-14, custom)"
   height="417.90268"
   xmlns:inkscape="http://www.inkscape.org/namespaces/inkscape"
   xmlns:sodipodi="http://sodipodi.sourceforge.net/DTD/sodipodi-0.dtd"
   xmlns="http://www.w3.org/2000/svg"
   xmlns:svg="http://www.w3.org/2000/svg"><defs
   id="defs2005"><linearGradient
     id="linearGradient4106"
     inkscape:swatch="solid"><stop
       style="stop-color:#000000;stop-opacity:0;"
       offset="0"
       id="stop4104" /></linearGradient></defs><sodipodi:namedview
   id="namedview2003"
   pagecolor="#ffffff"
   bordercolor="#000000"
   borderopacity="0.25"
   inkscape:showpageshadow="2"
   inkscape:pageopacity="0.0"
   inkscape:pagecheckerboard="0"
   inkscape:deskcolor="#d1d1d1"
   showgrid="false"
   inkscape:zoom="1.4142136"
   inkscape:cx="170.76629"
   inkscape:cy="220.61731"
   inkscape:window-width="1920"
   inkscape:window-height="1007"
   inkscape:window-x="0"
   inkscape:window-y="0"
   inkscape:window-maximized="1"
   inkscape:current-layer="Layer_1" />




























































































































































<g
   id="g25605"
   inkscape:label="Кожа"
   transform="translate(-31.875823,-10.003334)"><path
     fill="#f99746"
     opacity="1"
     stroke="none"
     d="m 168.96756,244.7683 -0.74029,-47.68624 20.18452,-5.78684 6.30491,-77.40209 c 0,0 1.25715,-5.08538 -2.95479,-3.09415 -2.39714,1.33685 -4.4604,2.5856 -7.03518,2.81321 -6.99114,0.70766 -9.76858,-4.64363 -12.13015,-10.30153 -1.06174,-2.53968 -1.03297,-9.783508 0.80965,-13.299996 2.72102,-5.192863 6.35924,-4.502339 6.35924,-4.502339 L 199.45136,61.042103 252.3643,53.32708 c 0,0 13.72345,31.236263 18.75369,30.022673 2.11146,-0.87302 6.95062,3.640273 7.79065,12.391874 0.11001,3.78319 -3.00976,10.789903 -4.68785,12.049833 -5.95347,4.46995 -10.06691,2.25128 -18.23171,-0.0142 -1.87495,-0.52023 -1.56278,6.3753 -1.56278,6.3753 l 5.35006,76.57979 19.25969,4.73566 0.30439,50.48815"
     id="path1724"
     sodipodi:nodetypes="cccccccscccccsscccc"
     inkscape:label="Кожа головы" /><path
     fill="#f99848"
     opacity="1"
     stroke="none"
     d="m 44.961482,342.47191 c -2.174846,-3.33513 -7.514003,-13.11473 -7.514003,-13.11473 l 366.562641,0.44379 c 0,0 -6.43185,22.32683 -53.96636,56.04928 -24.98837,17.72752 -54.61214,30.88924 -72.55429,34.97903 -8.35882,1.90534 -37.57124,6.42997 -40.52157,6.10517 -31.70363,-0.008 -57.45822,-1.74803 -87.26392,-11.24637 C 128.90246,406.83741 107.86312,397.0029 91.899793,386.77881 79.501459,377.82526 67.64656,368.49471 57.543025,358.64273 53.075534,354.28647 48.476364,348.05768 44.961482,342.47191 Z"
     id="path1640"
     sodipodi:nodetypes="cccsscccsc"
     inkscape:label="Кожа рук"
     style="display:inline;fill:#f99848;fill-opacity:1" /></g><g
   id="g5683"
   inkscape:label="Волосы"
   transform="translate(-31.875823,-10.003334)"><path
     fill="#e25506"
     opacity="1"
     stroke="none"
     d="m 257.66299,89.322908 c -0.68945,5.05302 -0.87045,7.95175 -2.67797,6.843887 -1.65509,-1.014437 -2.5781,-4.090425 -2.70983,-5.5841 -0.24364,-2.762619 0.431,-5.591705 0.45712,-8.395576 0.0571,-6.127968 -0.1987,-12.288243 -0.1532,-19.187322 1.66399,-5.850315 8.48525,-10.159338 13.21693,-9.770887 2.87049,0.492189 7.37898,11.35272 3.10256,15.353033 -1.31967,2.562619 -0.0265,4.160758 1.30683,5.924554 2.17332,1.453769 3.15331,1.912481 4.02554,3.481199 1.13994,3.534038 -0.71903,6.072366 -3.63652,5.582969 -8.39452,-4.305522 -10.87733,1.187839 -12.93146,5.752243 z"
     id="path1726"
     sodipodi:nodetypes="csssccccccc"
     inkscape:label="Волосы справа" /><path
     fill="#e25506"
     opacity="1"
     stroke="none"
     d="m 199.49244,62.989691 c -0.35516,10.068439 -1.29223,20.042345 -1.36242,30.112772 -0.0263,3.771019 -1.25649,5.52108 -5.77513,5.661972 -0.42497,-2.630982 -1.05615,-5.281571 -1.2444,-7.963242 -0.81857,-13.253342 -13.66172,-0.836283 -15.99736,-4.579642 -1.91255,-3.452054 4.01939,-5.119467 2.91609,-11.75562 -0.0153,-2.142355 -1.19454,-3.884529 -1.30065,-5.985523 -0.51448,-10.186566 10.51597,-19.299207 12.30622,-12.921527 3.12564,-0.457138 6.51589,1.086671 7.57827,2.571357 3.09865,1.317612 2.34565,2.390776 2.87938,4.859453 z"
     id="path1798"
     sodipodi:nodetypes="csccccsccc"
     inkscape:label="Волосы слева" /></g><g
   id="g22251"
   inkscape:label="Футболка"
   transform="translate(-31.875823,-10.003334)"><path
     style="display:inline;fill:#467ef9;fill-opacity:1"
     d="m 37.596465,329.85628 c 132.886615,-1.22101 249.130875,2.82096 366.993215,0.61526 0,0 4.96985,-11.47261 7.14433,-19.33116 -0.12287,-43.61121 -28.03722,-95.80207 -58.1901,-106.2615 -15.74485,-5.58907 -39.48569,-7.77826 -64.05428,-8.49539 -18.59006,-0.54262 -28.69109,-10.89678 -29.88496,-1.73482 -2.51255,19.28169 -11.94878,40.23465 -35.90598,39.94289 -7.01399,-0.0854 -30.19936,-0.0237 -36.3653,-42.15022 -0.67211,-4.59193 -11.39119,3.46582 -20.98761,3.50742 -19.19285,0.0831 -49.99789,0.26575 -58.41612,2.03042 -49.187934,10.03537 -72.753903,55.88215 -75.268865,110.8478"
     id="path4110"
     sodipodi:nodetypes="ccccssssscc"
     inkscape:label="Футболка ткань" /><path
     style="display:inline;fill:none;fill-opacity:1;fill-rule:evenodd;stroke:#fffffe;stroke-width:3;stroke-dasharray:none;stroke-opacity:1"
     d="m 170.37126,195.79938 c 8.00835,84.55361 108.3995,62.87239 107.11894,-0.29624"
     id="path24844"
     sodipodi:nodetypes="cc"
     inkscape:label="Воротник" /><path
     style="display:inline;fill:none;fill-opacity:1;fill-rule:evenodd;stroke:#fffffe;stroke-width:3;stroke-dasharray:none;stroke-opacity:1"
     d="M 411.49912,308.78485 32.93285,309.11327"
     id="path25218"
     sodipodi:nodetypes="cc"
     inkscape:label="Рукава" /></g><g
   id="g22338"
   inkscape:label="Лицо"
   transform="translate(-31.875823,-10.003334)"><g
     id="g21178"
     inkscape:label="Дырки в ушах"><path
       fill="#352215"
       opacity="1"
       stroke="none"
       d="m 262.01977,100.20063 c -1.94958,-2.05484 -2.53416,-3.892194 -0.12905,-5.358541 1.96462,-1.197788 4.61095,-2.46467 7.05285,-2.650735 5.80608,-0.442405 -1.78959,2.217001 -3.94833,5.244193 1.52397,2.434159 5.0314,3.712153 5.13336,6.371753 -3.75419,0.80686 -5.60416,-1.94889 -8.10883,-3.60667 z"
       id="path1888"
       sodipodi:nodetypes="cssccc"
       inkscape:label="Дырка в ухе справа" /><path
       fill="#3a2312"
       opacity="1"
       stroke="none"
       d="m 185.69,104.48276 c -2.7955,1.96225 -6.66985,1.5427 -4.61948,-0.70984 1.17517,-1.11137 2.36382,-1.91724 4.15563,-3.08898 -2.47694,-1.853496 -9.22181,-4.060703 -7.88259,-6.120613 3.12118,-0.256816 7.7583,2.330863 10.7286,3.695447 3.33627,2.521656 -0.45996,4.719196 -2.38219,6.223986 z"
       id="path1890"
       sodipodi:nodetypes="ccccccc"
       inkscape:label="Дырка в ухе слева" /></g><path
     fill="#211d1b"
     opacity="1"
     stroke="none"
     d="m 247.73489,123.21121 c -0.77577,21.07727 -30.06996,38.28785 -42.91274,0.44185 12.96194,12.45622 26.93399,16.2421 42.91274,-0.44185 z"
     id="path1868"
     sodipodi:nodetypes="ccc"
     inkscape:label="Подборобок" /><path
     fill="#FCF7ED"
     opacity="1"
     stroke="none"
     d="m 216.41707,103.29365 c 6.79614,-0.18231 14.36644,-0.19885 21.76486,-0.19885 -2.45267,10.09147 -16.42233,13.16677 -21.76486,0.19885 z"
     id="path1884"
     style="fill:#ffffff;fill-opacity:1"
     sodipodi:nodetypes="ccc"
     inkscape:label="Рот" /><path
     fill="#3a2312"
     opacity="1"
     stroke="none"
     d="m 227.08682,80.465045 c -0.81662,-2.319217 -1.30306,-4.401281 0.58913,-5.458823 1.09832,0.578199 0.62751,2.216326 1.04461,3.288001 1.26622,3.253333 3.07539,6.431841 4.41082,9.499059 0.60022,1.964103 2.36711,5.384017 1.06451,5.868382 -1.91355,0.711545 -5.75482,1.821811 -8.19203,2.473765 -0.21718,-0.665924 -0.43436,-1.331848 -0.65155,-1.997772 l 5.90153,-2.725296 c -1.48996,-3.477012 -2.48447,-7.062451 -4.16702,-10.947316 z"
     id="path1886"
     sodipodi:nodetypes="ccacscccc"
     inkscape:label="Нос" /><g
     id="g21168"
     inkscape:label="Глаза"><ellipse
       style="fill:#352215;fill-opacity:1;fill-rule:nonzero;stroke-width:1.04328"
       id="path20780"
       cx="215.49783"
       cy="73.977768"
       rx="2.904891"
       ry="2.9032943"
       inkscape:label="Глаз левый" /><ellipse
       style="fill:#352215;fill-opacity:1;fill-rule:nonzero;stroke-width:1.04328"
       id="path20780-6"
       cx="241.89938"
       cy="74.253883"
       rx="2.904891"
       ry="2.9032943"
       inkscape:label="Глаз правый" /></g><g
     id="g20656"
     inkscape:label="Брови"><path
       fill="#352215"
       opacity="1"
       stroke="none"
       d="m 248.28236,63.768907 c 2.81918,1.148744 1.71215,4.218447 -2.62275,3.556029 -1.91613,-0.316765 -4.91949,0.08176 -5.41186,-1.717037 -0.66425,-2.426697 5.07042,-2.378032 8.03461,-1.838992 z"
       id="path1892"
       sodipodi:nodetypes="ccsc"
       inkscape:label="Бровь правая" /><path
       fill="#352215"
       opacity="1"
       stroke="none"
       d="m 209.79046,63.460038 c -2.81918,1.148744 -1.71215,4.218447 2.62275,3.556029 1.91613,-0.316765 4.91949,0.08176 5.41186,-1.717037 0.66425,-2.426697 -5.07042,-2.378032 -8.03461,-1.838992 z"
       id="path1892-3"
       sodipodi:nodetypes="ccsc"
       inkscape:label="Бровь левая" /></g></g>
<g
   id="g22343"
   inkscape:label="Шляпа"
   transform="translate(-31.875823,-10.003334)"><path
     fill="#f8d021"
     opacity="1"
     stroke="none"
     d="m 263.91565,51.038025 c 2.83345,4.233264 -6.01781,10.71701 -15.40909,11.82031 -7.45752,0.87612 -13.48147,-2.875317 -21.46149,-3.341085 -7.98002,-0.465768 -9.99395,0.907013 -19.76573,3.683861 -7.13589,2.027808 -15.1463,0.143239 -19.21137,-9.477386 -6.77154,-59.5191348 83.91445,-54.242667 75.84768,-2.6857 z"
     id="path1580"
     sodipodi:nodetypes="cssscc"
     style="display:inline"
     inkscape:label="Основа шляпы" /><path
     fill="#332B06"
     opacity="1"
     stroke="none"
     d="m 263.95228,51.034662 c 0.0561,0.02975 0.6869,1.162662 0.44581,2.360942 -25.06837,-13.752223 -56.65397,-8.261827 -75.49533,2.290851 -0.60517,-0.669541 -1.26484,-1.823007 -0.69619,-2.153587 26.48311,-15.395869 58.45776,-11.670611 75.74571,-2.498206 z"
     id="path1652"
     style="display:inline;fill:#332b06;fill-opacity:0.997395"
     inkscape:label="Ободок шляпы"
     sodipodi:nodetypes="sccss" /><path
     fill="#202315"
     opacity="1"
     stroke="none"
     d="m 232.11011,29.078438 c 0.45958,3.415116 -0.31242,7.273067 -3.9666,7.533249 -6.84424,0.487319 -8.22224,-6.756643 -4.944,-11.04815 3.36127,-4.400204 8.31807,-0.888191 8.9106,3.514901 z"
     id="path1654"
     inkscape:label="Пупок шляпы"
     style="display:inline"
     sodipodi:nodetypes="ssss" /></g><g
   id="g5696"
   inkscape:label="Фартук"
   style="display:inline"
   transform="translate(-31.875823,-10.003334)"><path
     fill="#141b22"
     opacity="1"
     stroke="none"
     d="m 285.26655,196.02641 c 8.34467,-0.45702 16.65155,1.11213 25.40106,1.03373 1.87485,9.26626 3.16045,18.52175 4.5704,27.8379 3.5899,23.71979 7.17031,47.44101 10.78881,71.15643 2.03797,10.52757 3.50845,19.51566 5.07373,30.50242 l 2.72859,49.11624 -223.26141,1.92019 c 0,0 4.5937,-64.61296 8.37117,-92.34369 3.52068,-29.00112 6.87371,-58.02259 10.30749,-87.03433 0.0564,-0.47621 0.657,-1.71031 1.02709,-2.52102 8.41797,-0.36991 16.30658,0.0914 24.99028,0.11119 -0.24534,8.63814 -0.73675,17.55809 -1.60685,26.13858 -1.81088,17.85742 -3.80568,35.69614 -5.69757,53.54541 -0.42044,3.96652 -1.02862,7.95325 -0.92042,11.91348 1.44704,4.86422 6.73958,4.43669 10.55976,4.44675 37.63449,0.14945 75.26925,0.23215 112.90363,0.40167 7.31799,0.033 14.64505,0.19403 21.94778,0.63205 4.02793,0.24164 4.94016,-1.4703 4.44193,-5.00262 -2.57544,-18.26056 -5.18131,-36.51755 -7.60425,-54.79862 -1.61371,-12.43755 -2.97455,-27.64418 -4.02122,-37.0558 z"
     id="path1628"
     inkscape:label="Основа"
     sodipodi:nodetypes="ccscccccscccsccsscccc"
     style="display:inline" /><rect
     style="display:inline;fill:#ffffff;fill-opacity:1;fill-rule:nonzero"
     id="rect19050"
     width="102.91017"
     height="43.525421"
     x="172.06992"
     y="323.82288"
     inkscape:label="Рамка" /><rect
     style="display:inline;fill:#141b22;fill-opacity:1;fill-rule:nonzero;stroke-width:0.988728"
     id="rect25396"
     width="96.105652"
     height="40.593307"
     x="175.34377"
     y="326.89401"
     inkscape:label="Центр" /></g><g
   id="g5871"
   inkscape:label="Перчатки"
   style="display:inline"
   transform="translate(-31.875823,-10.003334)"><path
     fill="#fbd01b"
     opacity="1"
     stroke="none"
     d="m 198.71667,406.92844 c -8.01197,-3.03179 -13.7888,-8.93677 -20.06033,-14.24674 -7.19643,-6.09305 -15.44604,-8.44021 -24.39097,-9.8212 -11.96818,-1.84771 -17.08859,-2.32094 -29.01692,-4.42083 -1.20081,-0.21139 -9.70847,-2.35787 -12.12004,-3.67701 14.95529,-7.11627 31.42675,-12.73792 46.19051,-18.57028 11.24919,-3.89555 23.78447,-8.60273 35.64276,-8.4342 9.12116,0.3324 16.92881,2.00345 25.97873,3.32443 3.22574,0.47083 9.67789,1.55785 8.68522,4.74228 -5.346,17.14967 -16.46421,31.1792 -25.2398,47.33658 -0.88571,1.63077 -3.47499,4.59726 -5.66916,3.76697 z"
     id="path1806"
     sodipodi:nodetypes="sssscccssss"
     inkscape:label="Перчатка левая" /><path
     fill="#fbd117"
     opacity="1"
     stroke="none"
     d="m 320.21612,333.81771 c 5.36516,-3.88382 10.29634,-5.07245 15.18062,-6.92263 5.07335,-0.70803 17.22239,-5.86612 16.63668,4.10202 -0.50641,1.19815 -1.5944,4.2823 -2.21255,6.13286 1.12485,-0.54564 6.83919,-2.35906 10.25949,-2.11798 4.47767,0.31562 8.16491,6.06179 4.94737,11.19376 -4.16109,3.34554 -7.96405,5.07491 -10.92709,7.32711 -1.35026,1.23978 10.58803,1.06851 12.19887,7.03532 1.07116,3.96775 0.068,7.84577 -6.7252,9.19678 -0.92781,-0.10569 -27.66281,-3.88926 -27.66281,-3.88926 l -18.01248,-1.61154 c 0,0 -14.57804,-1.36237 -19.72556,-1.67085 6.72378,-9.72856 17.71314,-23.92093 26.04266,-28.77559 z"
     id="path1838"
     sodipodi:nodetypes="ccccsccsccccc"
     inkscape:label="Перчатка правая" /><g
     id="g5875"
     inkscape:label="Линии"><path
       fill="#332b06"
       opacity="1"
       stroke="none"
       d="m 345.84644,339.96258 c -0.25104,0.33577 -2.3152,1.15906 -2.73726,1.30523 -6.14031,2.12649 -11.07865,6.91567 -15.45275,10.82032 -3.27988,3.38428 -8.20396,10.30692 -10.93557,11.18861 -1.71126,0.55234 -0.0876,-4.70587 0.6721,-5.52447 5.00587,-5.39425 8.98343,-11.61341 14.92485,-15.72912 2.76034,-1.91213 5.92067,-3.94474 9.27853,-3.92301 1.54669,0.01 3.40386,0.56749 4.2501,1.86218 5e-5,7e-5 0,2.6e-4 0,2.6e-4 z"
       id="path1844"
       sodipodi:nodetypes="cscssaaac"
       inkscape:label="2" /><path
       fill="#332b06"
       opacity="1"
       stroke="none"
       d="m 350.66272,353.10366 c 0.60426,-1.9e-4 2.23231,2.37968 0.60962,2.44511 -7.23902,0.29188 -14.39853,4.51516 -20.1402,9.93136 -1.11401,0.20038 -3.36436,-0.22487 -2.55775,-1.21568 1.52731,-1.87609 2.68175,-2.72483 4.44215,-4.20299 8.3744,-7.0318 10.75371,-6.95559 17.64618,-6.9578 z"
       id="path1846"
       sodipodi:nodetypes="sscsss"
       inkscape:label="1" /></g></g><g
   id="g25600"
   inkscape:label="Предплечье"
   transform="translate(-31.875823,-10.003334)"><path
     fill="#35270d"
     opacity="1"
     stroke="none"
     d="m 220.30704,426.8006 c -8.97444,-6.4577 -17.54412,-12.76773 -26.1417,-19.03952 -5.75283,-4.19657 -11.90458,-7.92771 -17.24308,-12.59339 -10.16411,-8.88308 -22.97916,-8.67648 -35.02945,-11.07452 -9.95021,-1.9801 -20.71865,-3.95235 -30.71404,-5.70967 -4.65756,-0.68547 2.77561,-43.76309 3.20055,-48.91286 -0.19662,10.94736 -1.76232,31.77226 -2.27082,43.32092 4.46999,-1.35604 8.49024,-2.41785 12.56611,-3.27012 -3.1197,1.89374 -6.58029,3.34883 -11.14769,5.50957 13.36908,4.12783 28.62962,5.94682 40.73845,7.82949 8.94493,1.38099 17.19454,3.72815 24.39097,9.8212 6.27153,5.30997 13.45441,9.54358 20.23462,14.25275 8.44734,6.39227 17.07789,13.28204 25.78456,19.80789 -1.09125,0.32895 -2.62503,0.0268 -4.36848,0.0583 z"
     id="path1642"
     style="display:inline"
     sodipodi:nodetypes="csssccccccscccc"
     inkscape:label="Линия предплечья" /><path
     style="display:inline;fill:#f99848;fill-opacity:1;fill-rule:nonzero"
     d="m 358.68694,376.05421 c 0,0 -11.8013,-8.36815 -25.72355,-10.10574 -11.64864,-1.45383 -21.7621,-2.55607 -35.0599,-3.32317 -11.37291,-0.65606 -35.44356,-3.17954 -35.44356,-3.17954 l -32.8958,-3.43205 -13.47121,29.13177 z"
     id="path6892"
     sodipodi:nodetypes="csscccc"
     inkscape:label="Кожа предплечья" /></g>


























































</svg>
